<svg width="21" height="20" viewBox="0 0 21 20" fill="none" xmlns="http://www.w3.org/2000/svg">
<g clip-path="url(#clip0_104_2)">
<rect width="21" height="20" fill="white"/>
<path d="M1.5 8C1.5 6.11438 1.5 5.17157 2.08579 4.58579C2.67157 4 3.61438 4 5.5 4H15.5C17.3856 4 18.3284 4 18.9142 4.58579C19.5 5.17157 19.5 6.11438 19.5 8V9H1.5V8Z" stroke="#5F5C5C" stroke-width="1.2"/>
<path d="M17.5 4H3.5C2.39543 4 1.5 4.89543 1.5 6V17C1.5 18.1046 2.39543 19 3.5 19H17.5C18.6046 19 19.5 18.1046 19.5 17V6C19.5 4.89543 18.6046 4 17.5 4Z" stroke="#5F5C5C" stroke-width="1.2"/>
<path d="M5.5 1V6" stroke="#5F5C5C" stroke-width="1.2" stroke-linecap="round"/>
<path d="M15.5 1V6" stroke="#5F5C5C" stroke-width="1.2" stroke-linecap="round"/>
</g>
<defs>
<clipPath id="clip0_104_2">
<rect width="21" height="20" fill="white"/>
</clipPath>
</defs>
</svg>
