<svg width="21" height="22" viewBox="0 0 21 22" fill="none" xmlns="http://www.w3.org/2000/svg">
<path d="M2.92893 18.0711C4.32746 19.4696 6.10929 20.422 8.0491 20.8079C9.98891 21.1937 11.9996 20.9957 13.8268 20.2388C15.6541 19.4819 17.2159 18.2002 18.3147 16.5557C19.4135 14.9112 20 12.9778 20 11C20 9.02219 19.4135 7.08879 18.3147 5.4443C17.2159 3.79981 15.6541 2.51808 13.8268 1.76121C11.9996 1.00433 9.98891 0.806295 8.0491 1.19215C6.10929 1.578 4.32746 2.53041 2.92893 3.92893" stroke="#5F5C5C"/>
<path d="M13 11L13.3904 10.6877L13.6403 11L13.3904 11.3123L13 11ZM1 11.5C0.723858 11.5 0.5 11.2761 0.5 11C0.5 10.7239 0.723858 10.5 1 10.5V11.5ZM9.39043 5.68765L13.3904 10.6877L12.6096 11.3123L8.60957 6.31235L9.39043 5.68765ZM13.3904 11.3123L9.39043 16.3123L8.60957 15.6877L12.6096 10.6877L13.3904 11.3123ZM13 11.5H1V10.5H13V11.5Z" fill="#5F5C5C"/>
</svg>
