<svg width="132" height="34" viewBox="0 0 132 34" fill="none" xmlns="http://www.w3.org/2000/svg">
<path d="M33.0658 3.22882V29.3707C33.0658 31.627 34.4184 32.5995 36.8984 32.6773V33.3387H25.7763V32.6773C28.2562 32.5606 29.684 31.5881 29.684 29.3318V5.64072L18.9752 33.2998H17.6601L6.12468 4.35697L6.50043 7.6636V29.3707C6.50043 31.627 7.85312 32.5995 10.333 32.6773V33.3387H0.563621V32.6773C2.93083 32.5606 4.35867 31.627 4.47139 29.5652L4.43382 3.22882C4.43382 1.20594 3.38172 1.43935 0 1.32264V0.661316H8.07857L19.088 28.5927L29.684 0.661316H37.462V1.32264C34.1178 1.43935 33.0658 1.20594 33.0658 3.22882Z" fill="#4BA6D9"/>
<path d="M74.0223 3.22882V29.3707C74.0223 31.627 75.375 32.5995 77.8549 32.6773V33.3387H66.7328V32.6773C69.2127 32.5995 70.6406 31.5881 70.6406 29.3707V5.64072L59.9318 33.2998H58.6167L47.0812 4.31807L47.457 7.6247V29.3318C47.457 31.5881 48.8097 32.5606 51.2896 32.6384V33.2998H41.5202V32.6773C43.9249 32.5995 45.3528 31.6659 45.4279 29.6041L45.3904 3.22882C45.3904 1.20594 44.3383 1.43935 40.9565 1.32264V0.661316H49.0351L60.0445 28.5927L70.6781 0.661316H78.4561V1.32264C75.0744 1.43935 74.0223 1.20594 74.0223 3.22882Z" fill="#4BA6D9"/>
<path d="M101.414 10.7757H100.738C100.099 7.74142 98.183 1.43936 90.931 1.43936C89.1275 1.43936 87.5117 2.06179 86.3845 3.07323C85.4076 3.96796 84.8064 5.17391 84.8064 6.53547C84.8064 9.25858 86.7603 11.6705 92.2086 14.6659C94.4631 15.8719 97.6945 17.2334 99.9866 19.1007C101.64 20.4622 102.88 22.0572 102.88 24.0801C102.88 27.0366 101.602 29.7208 99.3478 31.5881C97.3939 33.1831 94.7637 34.1167 91.4947 33.9611C87.6996 33.7666 84.2052 31.7826 82.2889 30.6545V22.4462H82.9652C83.5664 28.5538 87.0233 31.8604 92.8849 31.8215C95.2146 31.7826 97.0933 31.1991 98.2957 30.1876C99.4605 29.2151 100.099 27.8535 100.099 26.2197C100.099 24.3524 99.2351 22.8741 97.9199 21.5904C95.6655 19.4508 92.0959 18.0114 89.5784 16.6888C83.4537 13.46 81.9507 10.8535 81.9507 7.93593C81.9507 5.67963 82.9276 3.81236 84.6561 2.4897C86.6475 0.894737 89.6159 0 93.2231 0C97.0933 0 100.25 2.17849 100.888 2.72311L101.414 10.7757Z" fill="#4BA6D9"/>
<path d="M132 25.7528L130.948 33.2998H106.111V32.5995L108.516 32.1327L110.019 31.1991H110.056V4.62928C110.056 2.37299 108.628 1.40045 106.148 1.32264V0.661316H117.271V1.32264C114.791 1.40045 113.438 2.41189 113.438 4.62928V32.1716L123.583 31.6659C126.476 31.5103 130.309 31.1213 131.173 25.7918H132V25.7528Z" fill="#4BA6D9"/>
</svg>
