<svg width="158" height="75" viewBox="0 0 158 75" fill="none" xmlns="http://www.w3.org/2000/svg">
<g clip-path="url(#clip0_20_354)">
<path d="M41.0777 3.79861V34.5538C41.0777 37.2082 42.6763 38.3524 45.6072 38.4439V39.222H32.4629V38.4439C35.3937 38.3066 37.0811 37.1625 37.0811 34.508V6.63614L24.4253 39.1762H22.871L9.23826 5.12584L9.68232 9.016V34.5538C9.68232 37.2082 11.281 38.3524 14.2118 38.4439V39.222H2.6661V38.4439C5.46371 38.3066 7.15115 37.2082 7.28437 34.7826L7.23996 3.79861C7.23996 1.41875 5.99658 1.69335 2 1.55605V0.778015H11.5474L24.5585 33.6384L37.0811 0.778015H46.2733V1.55605C42.3211 1.69335 41.0777 1.41875 41.0777 3.79861Z" fill="#4BA6D9"/>
<path d="M89.4808 3.79861V34.5538C89.4808 37.2082 91.0794 38.3524 94.0102 38.4439V39.222H80.8659V38.4439C83.7968 38.3524 85.4842 37.1625 85.4842 34.5538V6.63614L72.8284 39.1762H71.2741L57.6413 5.08007L58.0854 8.97024V34.508C58.0854 37.1625 59.684 38.3066 62.6149 38.3982V39.1762H51.0692V38.4439C53.9112 38.3524 55.5986 37.254 55.6875 34.8284L55.643 3.79861C55.643 1.41875 54.3997 1.69335 50.4031 1.55605V0.778015H59.9505L72.9616 33.6384L85.5286 0.778015H94.7207V1.55605C90.7242 1.69335 89.4808 1.41875 89.4808 3.79861Z" fill="#4BA6D9"/>
<path d="M121.853 12.6773H121.054C120.299 9.10755 118.034 1.69336 109.464 1.69336C107.332 1.69336 105.423 2.42563 104.091 3.61556C102.936 4.66819 102.225 6.08696 102.225 7.68879C102.225 10.8924 104.535 13.73 110.974 17.254C113.638 18.6728 117.457 20.2746 120.166 22.4714C122.12 24.0732 123.585 25.9497 123.585 28.3295C123.585 31.8078 122.075 34.9657 119.411 37.1625C117.102 39.0389 113.993 40.1373 110.13 39.9542C105.645 39.7254 101.515 37.3913 99.2502 36.0641V26.4073H100.05C100.76 33.5927 104.845 37.4828 111.773 37.4371C114.526 37.3913 116.746 36.7048 118.167 35.5149C119.544 34.3707 120.299 32.7689 120.299 30.8467C120.299 28.6499 119.278 26.9108 117.723 25.4005C115.059 22.8833 110.84 21.1899 107.865 19.6339C100.627 15.8352 98.8506 12.7689 98.8506 9.33638C98.8506 6.68192 100.005 4.48513 102.048 2.92906C104.401 1.05263 107.91 0 112.173 0C116.746 0 120.477 2.56293 121.231 3.20366L121.853 12.6773Z" fill="#4BA6D9"/>
<path d="M158 30.2975L156.757 39.1762H127.404V38.3524L130.246 37.8032L132.022 36.7048H132.067V5.44621C132.067 2.79175 130.379 1.64758 127.448 1.55605V0.778015H140.593V1.55605C137.662 1.64758 136.063 2.83751 136.063 5.44621V37.849L148.053 37.254C151.472 37.0709 156.002 36.6133 157.023 30.3432H158V30.2975Z" fill="#4BA6D9"/>
</g>
<path d="M22.904 57.376C22.984 57.376 23.024 57.408 23.024 57.472C23.024 57.536 22.984 57.568 22.904 57.568C22.344 57.568 21.736 57.6 21.08 57.664C20.44 57.728 19.768 57.816 19.064 57.928C17.912 59.352 16.72 60.776 15.488 62.2C14.272 63.624 13.112 65 12.008 66.328C11.928 67.288 11.696 68.264 11.312 69.256C10.928 70.264 10.496 71.168 10.016 71.968C9.536 72.784 9.064 73.448 8.6 73.96C8.136 74.488 7.792 74.752 7.568 74.752C7.424 74.752 7.336 74.664 7.304 74.488C7.256 74.328 7.224 74.168 7.208 74.008C7.208 73.512 7.328 72.952 7.568 72.328C7.792 71.704 8.112 71.032 8.528 70.312C8.944 69.608 9.432 68.864 9.992 68.08C10.568 67.296 11.192 66.48 11.864 65.632C11.848 65.088 11.752 64.568 11.576 64.072C11.416 63.592 11.136 63.176 10.736 62.824C10.352 62.472 9.848 62.192 9.224 61.984C8.6 61.776 7.824 61.672 6.896 61.672C6.112 61.672 5.224 61.752 4.232 61.912C3.224 62.072 2.096 62.336 0.848 62.704C0.784 62.704 0.744 62.68 0.728 62.632C0.728 62.616 0.736 62.592 0.752 62.56C0.752 62.528 0.768 62.512 0.8 62.512C1.904 62.176 3.168 61.792 4.592 61.36C6 60.928 7.472 60.504 9.008 60.088C10.544 59.656 12.096 59.248 13.664 58.864C15.248 58.48 16.76 58.16 18.2 57.904C19 56.896 19.76 55.912 20.48 54.952C21.216 53.992 21.856 53.072 22.4 52.192C22.96 51.312 23.4 50.48 23.72 49.696C24.056 48.912 24.224 48.208 24.224 47.584C24.224 47.232 24.16 46.944 24.032 46.72C23.92 46.48 23.76 46.288 23.552 46.144C23.344 46 23.096 45.896 22.808 45.832C22.536 45.768 22.248 45.736 21.944 45.736C21.24 45.736 20.384 45.896 19.376 46.216C18.368 46.536 17.288 46.952 16.136 47.464C14.984 47.976 13.8 48.568 12.584 49.24C11.384 49.896 10.224 50.568 9.104 51.256C7.984 51.928 6.952 52.592 6.008 53.248C5.048 53.904 4.264 54.48 3.656 54.976C3.576 55.024 3.52 55.048 3.488 55.048C3.44 55.048 3.416 55.024 3.416 54.976C3.416 54.944 3.424 54.92 3.44 54.904C4.048 54.408 4.832 53.832 5.792 53.176C6.736 52.52 7.768 51.848 8.888 51.16C10.024 50.456 11.208 49.768 12.44 49.096C13.672 48.424 14.872 47.824 16.04 47.296C17.208 46.768 18.304 46.344 19.328 46.024C20.352 45.704 21.224 45.544 21.944 45.544C22.712 45.544 23.328 45.728 23.792 46.096C24.256 46.464 24.488 47.08 24.488 47.944C24.488 48.584 24.344 49.288 24.056 50.056C23.784 50.808 23.408 51.6 22.928 52.432C22.448 53.264 21.888 54.128 21.248 55.024C20.608 55.92 19.92 56.832 19.184 57.76C19.872 57.648 20.52 57.56 21.128 57.496C21.752 57.432 22.344 57.392 22.904 57.376ZM10.88 69.88C11.104 69.336 11.296 68.784 11.456 68.224C11.616 67.68 11.736 67.136 11.816 66.592L11.576 66.88C11.208 67.312 10.784 67.824 10.304 68.416C9.84 69.024 9.392 69.656 8.96 70.312C8.528 70.968 8.168 71.624 7.88 72.28C7.576 72.952 7.424 73.568 7.424 74.128C7.424 74.208 7.432 74.296 7.448 74.392C7.464 74.488 7.512 74.536 7.592 74.536C7.736 74.536 7.936 74.408 8.192 74.152C8.464 73.896 8.752 73.552 9.056 73.12C9.376 72.688 9.696 72.192 10.016 71.632C10.336 71.072 10.624 70.488 10.88 69.88ZM12.032 65.392C12.976 64.208 13.968 63 15.008 61.768C16.048 60.536 17.072 59.304 18.08 58.072C16.928 58.28 15.72 58.536 14.456 58.84C13.208 59.128 11.96 59.44 10.712 59.776C9.464 60.112 8.24 60.456 7.04 60.808C5.84 61.16 4.712 61.496 3.656 61.816C4.264 61.704 4.832 61.624 5.36 61.576C5.872 61.512 6.36 61.48 6.824 61.48C7.768 61.48 8.56 61.584 9.2 61.792C9.856 61.984 10.384 62.256 10.784 62.608C11.2 62.96 11.504 63.376 11.696 63.856C11.888 64.336 12 64.848 12.032 65.392ZM27.4931 59.056C27.5731 59.056 27.6131 59.104 27.6131 59.2C27.1491 59.76 26.6691 60.192 26.1731 60.496C25.6771 60.784 25.1491 60.928 24.5891 60.928C24.4451 60.928 24.3011 60.92 24.1571 60.904C24.0131 60.888 23.8691 60.856 23.7251 60.808C23.5491 60.984 23.3571 61.136 23.1491 61.264C22.9411 61.392 22.7411 61.456 22.5491 61.456C22.4051 61.456 22.2851 61.416 22.1891 61.336C22.0931 61.24 22.0451 61.096 22.0451 60.904C22.0451 60.616 22.1731 60.264 22.4291 59.848C22.3971 59.832 22.3811 59.792 22.3811 59.728C22.3811 59.664 22.3811 59.616 22.3811 59.584C22.3811 59.248 22.5171 58.968 22.7891 58.744C23.0451 58.52 23.3411 58.408 23.6771 58.408C23.9491 58.408 24.1651 58.48 24.3251 58.624C24.4851 58.768 24.5651 58.96 24.5651 59.2C24.5651 59.472 24.4931 59.736 24.3491 59.992C24.2051 60.232 24.0451 60.456 23.8691 60.664C24.0771 60.728 24.3091 60.76 24.5651 60.76C25.0931 60.76 25.5971 60.616 26.0771 60.328C26.5571 60.024 27.0291 59.6 27.4931 59.056ZM23.6771 58.6C23.3731 58.6 23.1091 58.696 22.8851 58.888C22.6771 59.064 22.5731 59.312 22.5731 59.632C22.6851 59.504 22.7971 59.36 22.9091 59.2C23.0371 59.04 23.1891 58.96 23.3651 58.96C23.4451 58.96 23.5251 58.976 23.6051 59.008C23.7011 59.04 23.7491 59.096 23.7491 59.176C23.7491 59.272 23.6451 59.408 23.4371 59.584C23.2451 59.744 23.0611 59.952 22.8851 60.208C22.9811 60.304 23.1011 60.384 23.2451 60.448C23.4051 60.512 23.5491 60.56 23.6771 60.592C23.8531 60.416 24.0131 60.208 24.1571 59.968C24.3171 59.712 24.3971 59.464 24.3971 59.224C24.3971 59 24.3331 58.84 24.2051 58.744C24.0771 58.648 23.9011 58.6 23.6771 58.6ZM23.0291 61.12C23.1091 61.072 23.1891 61.016 23.2691 60.952C23.3651 60.888 23.4531 60.816 23.5331 60.736C23.3731 60.704 23.2291 60.656 23.1011 60.592C22.9731 60.512 22.8611 60.432 22.7651 60.352C22.6851 60.48 22.6131 60.608 22.5491 60.736C22.4851 60.864 22.4531 60.992 22.4531 61.12C22.4531 61.232 22.5011 61.288 22.5971 61.288C22.6771 61.288 22.7571 61.272 22.8371 61.24C22.9171 61.192 22.9811 61.152 23.0291 61.12ZM32.0199 59.056C32.0519 59.056 32.0759 59.072 32.0919 59.104C32.1239 59.136 32.1399 59.168 32.1399 59.2C31.9639 59.392 31.6759 59.68 31.2759 60.064C30.8919 60.432 30.4679 60.8 30.0039 61.168C29.5399 61.52 29.0839 61.832 28.6359 62.104C28.1879 62.376 27.8279 62.512 27.5559 62.512C27.2039 62.512 27.0279 62.304 27.0279 61.888C27.0279 61.696 27.0759 61.504 27.1719 61.312C27.2679 61.12 27.3719 60.928 27.4839 60.736C27.5959 60.544 27.6999 60.352 27.7959 60.16C27.9079 59.968 27.9719 59.76 27.9879 59.536V59.44C27.9879 59.328 27.9719 59.232 27.9399 59.152C27.9079 59.056 27.8759 58.96 27.8439 58.864C27.7159 59.072 27.5559 59.272 27.3639 59.464C27.1879 59.64 27.0039 59.816 26.8119 59.992C26.7959 60.008 26.7719 60.016 26.7399 60.016C26.6919 60.016 26.6679 59.984 26.6679 59.92C26.6679 59.888 26.6839 59.856 26.7159 59.824C26.9079 59.648 27.0919 59.464 27.2679 59.272C27.4599 59.08 27.6199 58.872 27.7479 58.648C27.6839 58.52 27.6279 58.384 27.5799 58.24C27.5319 58.096 27.5079 57.936 27.5079 57.76V57.664C27.5239 57.44 27.5719 57.272 27.6519 57.16C27.7479 57.032 27.8519 56.968 27.9639 56.968C28.0439 56.968 28.1159 57.016 28.1799 57.112C28.2599 57.208 28.2999 57.368 28.2999 57.592C28.2839 57.816 28.2359 58.04 28.1559 58.264L28.2039 58.336L28.2519 58.408C28.2999 58.504 28.3239 58.544 28.3239 58.528C28.4039 58.656 28.4679 58.8 28.5159 58.96C28.5799 59.104 28.6119 59.264 28.6119 59.44V59.56C28.5959 59.848 28.5239 60.12 28.3959 60.376C28.2679 60.616 28.1319 60.84 27.9879 61.048C27.8439 61.256 27.7079 61.456 27.5799 61.648C27.4679 61.824 27.4039 61.992 27.3879 62.152C27.3879 62.264 27.4439 62.32 27.5559 62.32C27.8119 62.32 28.1639 62.184 28.6119 61.912C29.0599 61.624 29.5079 61.304 29.9559 60.952C30.4199 60.584 30.8439 60.224 31.2279 59.872C31.6119 59.504 31.8759 59.232 32.0199 59.056ZM27.8199 57.352C27.8199 57.48 27.8359 57.6 27.8679 57.712C27.9159 57.808 27.9719 57.912 28.0359 58.024L28.1079 57.568V57.472C28.1079 57.248 28.0519 57.136 27.9399 57.136C27.8599 57.136 27.8199 57.208 27.8199 57.352ZM47.2199 59.056C47.2999 59.056 47.3399 59.104 47.3399 59.2C47.0999 59.456 46.8039 59.752 46.4519 60.088C46.1159 60.424 45.7479 60.744 45.3479 61.048C44.9479 61.336 44.5319 61.584 44.0999 61.792C43.6839 62 43.2919 62.104 42.9239 62.104C42.6999 62.104 42.4919 62.04 42.2999 61.912C42.1239 61.784 42.0359 61.56 42.0359 61.24C42.0359 60.872 42.1079 60.496 42.2519 60.112C41.9319 60.4 41.6039 60.664 41.2679 60.904C40.9319 61.144 40.6679 61.264 40.4759 61.264C40.3639 61.264 40.2599 61.24 40.1639 61.192C40.0519 61.128 39.9959 61.008 39.9959 60.832C39.9959 60.64 40.0599 60.432 40.1879 60.208C40.2999 59.984 40.4519 59.776 40.6439 59.584C40.8199 59.376 41.0119 59.208 41.2199 59.08C41.4279 58.952 41.6279 58.888 41.8199 58.888C41.9959 58.888 42.1479 58.936 42.2759 59.032C42.4199 59.128 42.5319 59.232 42.6119 59.344C42.6919 59.248 42.7639 59.152 42.8279 59.056C42.8919 58.96 43.0039 58.912 43.1639 58.912C43.2279 58.912 43.2839 58.928 43.3319 58.96C43.3959 58.992 43.4279 59.048 43.4279 59.128C43.4279 59.176 43.3719 59.296 43.2599 59.488C43.1639 59.664 43.0519 59.872 42.9239 60.112C42.8119 60.352 42.7079 60.6 42.6119 60.856C42.5159 61.096 42.4679 61.312 42.4679 61.504C42.4679 61.664 42.5159 61.776 42.6119 61.84C42.7079 61.888 42.8119 61.912 42.9239 61.912C43.2599 61.912 43.6279 61.808 44.0279 61.6C44.4439 61.392 44.8519 61.144 45.2519 60.856C45.6519 60.552 46.0199 60.24 46.3559 59.92C46.7079 59.584 46.9959 59.296 47.2199 59.056ZM42.5399 59.512C42.4919 59.464 42.4119 59.392 42.2999 59.296C42.2039 59.184 42.1159 59.128 42.0359 59.128C41.9399 59.128 41.7959 59.2 41.6039 59.344C41.4119 59.488 41.2199 59.656 41.0279 59.848C40.8359 60.04 40.6679 60.24 40.5239 60.448C40.3799 60.64 40.3079 60.792 40.3079 60.904C40.3079 61 40.3559 61.048 40.4519 61.048C40.5479 61.048 40.6839 61 40.8599 60.904C41.0359 60.808 41.2199 60.688 41.4119 60.544C41.6039 60.384 41.7959 60.216 41.9879 60.04C42.1959 59.864 42.3799 59.688 42.5399 59.512ZM83.447 44.584C83.863 44.6 84.207 44.712 84.479 44.92C84.767 45.128 84.911 45.44 84.911 45.856C84.911 46.32 84.703 46.904 84.287 47.608C83.887 48.296 83.207 49.072 82.247 49.936C81.271 50.816 80.039 51.68 78.551 52.528C77.063 53.376 75.439 54.16 73.679 54.88L72.887 55.192C72.151 56.264 71.407 57.352 70.655 58.456C69.903 59.56 69.127 60.656 68.327 61.744C68.951 61.888 69.567 62.008 70.175 62.104C70.799 62.184 71.415 62.224 72.023 62.224C73.079 62.224 74.095 62.064 75.071 61.744C76.063 61.408 77.039 60.816 77.999 59.968C78.063 59.904 78.151 59.824 78.263 59.728C78.375 59.616 78.479 59.512 78.575 59.416C78.671 59.32 78.751 59.24 78.815 59.176C78.895 59.096 78.943 59.056 78.959 59.056C79.039 59.056 79.079 59.104 79.079 59.2C78.551 59.76 78.023 60.24 77.495 60.64C76.615 61.312 75.719 61.776 74.807 62.032C73.911 62.288 72.991 62.416 72.047 62.416C71.423 62.416 70.791 62.368 70.151 62.272C69.511 62.176 68.863 62.056 68.207 61.912C67.087 63.448 65.927 64.912 64.727 66.304C63.543 67.712 62.303 68.944 61.007 70C59.727 71.056 58.399 71.896 57.023 72.52C55.663 73.16 54.239 73.48 52.751 73.48C51.791 73.48 50.959 73.352 50.255 73.096C49.551 72.856 48.975 72.528 48.527 72.112C48.079 71.696 47.751 71.2 47.543 70.624C47.319 70.064 47.207 69.464 47.207 68.824C47.207 67.816 47.455 66.776 47.951 65.704C48.447 64.632 49.159 63.656 50.087 62.776C51.015 61.88 52.135 61.144 53.447 60.568C54.759 59.992 56.231 59.704 57.863 59.704C58.711 59.704 59.551 59.768 60.383 59.896C61.215 60.024 62.039 60.184 62.855 60.376C63.671 60.568 64.479 60.776 65.279 61C66.079 61.208 66.871 61.408 67.655 61.6C68.391 60.592 69.111 59.584 69.815 58.576C70.519 57.552 71.215 56.536 71.903 55.528C71.199 55.768 70.399 56.024 69.503 56.296C68.623 56.552 67.703 56.792 66.743 57.016C65.783 57.224 64.815 57.4 63.839 57.544C62.863 57.688 61.919 57.76 61.007 57.76C59.999 57.76 59.071 57.656 58.223 57.448C57.375 57.224 56.679 56.856 56.135 56.344C55.991 56.216 55.815 56.024 55.607 55.768C55.399 55.512 55.295 55.272 55.295 55.048C55.295 55 55.319 54.976 55.367 54.976C55.415 54.976 55.447 54.992 55.463 55.024C55.655 55.504 55.927 55.904 56.279 56.224C56.631 56.544 57.047 56.808 57.527 57.016C58.007 57.224 58.535 57.376 59.111 57.472C59.703 57.552 60.327 57.592 60.983 57.592C61.911 57.592 62.879 57.52 63.887 57.376C64.911 57.216 65.911 57.024 66.887 56.8C67.879 56.576 68.815 56.328 69.695 56.056C70.591 55.768 71.391 55.504 72.095 55.264C73.103 53.824 74.087 52.456 75.047 51.16C76.023 49.864 76.983 48.736 77.927 47.776C78.871 46.8 79.799 46.024 80.711 45.448C81.639 44.872 82.551 44.584 83.447 44.584ZM52.751 73.288C54.111 73.288 55.439 72.976 56.735 72.352C58.031 71.728 59.287 70.88 60.503 69.808C61.735 68.752 62.935 67.528 64.103 66.136C65.271 64.744 66.415 63.28 67.535 61.744C66.767 61.552 65.991 61.352 65.207 61.144C64.423 60.92 63.623 60.72 62.807 60.544C62.007 60.352 61.191 60.192 60.359 60.064C59.543 59.936 58.711 59.872 57.863 59.872C56.263 59.872 54.823 60.16 53.543 60.736C52.247 61.296 51.143 62.016 50.231 62.896C49.319 63.76 48.623 64.712 48.143 65.752C47.647 66.808 47.399 67.824 47.399 68.8C47.399 69.424 47.503 70.008 47.711 70.552C47.919 71.096 48.247 71.568 48.695 71.968C49.127 72.384 49.679 72.704 50.351 72.928C51.023 73.168 51.823 73.288 52.751 73.288ZM84.719 45.928C84.719 45.544 84.607 45.256 84.383 45.064C84.159 44.872 83.855 44.776 83.471 44.776C82.655 44.776 81.831 45.048 80.999 45.592C80.167 46.136 79.319 46.872 78.455 47.8C77.591 48.712 76.711 49.784 75.815 51.016C74.919 52.248 74.007 53.552 73.079 54.928C73.175 54.88 73.263 54.84 73.343 54.808C73.439 54.776 73.527 54.744 73.607 54.712C75.351 53.992 76.967 53.216 78.455 52.384C79.943 51.536 81.167 50.68 82.127 49.816C83.039 49 83.695 48.264 84.095 47.608C84.495 46.952 84.703 46.392 84.719 45.928ZM83.5183 59.056C83.6143 59.056 83.6623 59.104 83.6623 59.2C83.3903 59.504 83.0783 59.808 82.7263 60.112C82.3903 60.416 82.0223 60.688 81.6223 60.928C81.2383 61.168 80.8303 61.368 80.3983 61.528C79.9823 61.672 79.5583 61.744 79.1263 61.744C78.7423 61.744 78.4622 61.64 78.2862 61.432C78.0942 61.208 77.9822 60.936 77.9502 60.616C77.9502 60.376 77.9902 60.136 78.0702 59.896C78.1342 59.64 78.2382 59.408 78.3822 59.2C78.5103 58.992 78.6703 58.824 78.8623 58.696C79.0543 58.552 79.2783 58.48 79.5343 58.48C79.8863 58.48 80.0783 58.592 80.1103 58.816C80.1103 58.928 80.0623 59.04 79.9663 59.152C79.8703 59.248 79.7503 59.344 79.6063 59.44C79.4783 59.536 79.3343 59.624 79.1743 59.704C79.0143 59.768 78.8623 59.816 78.7183 59.848C78.5903 60.152 78.5263 60.448 78.5263 60.736C78.5423 60.96 78.6143 61.144 78.7423 61.288C78.8703 61.432 79.0703 61.504 79.3423 61.504C79.7263 61.504 80.1103 61.432 80.4943 61.288C80.8783 61.128 81.2543 60.936 81.6223 60.712C81.9903 60.472 82.3343 60.208 82.6543 59.92C82.9903 59.632 83.2783 59.344 83.5183 59.056ZM79.8703 58.696C79.6623 58.696 79.4623 58.792 79.2703 58.984C79.0943 59.16 78.9423 59.376 78.8143 59.632C79.0383 59.552 79.2783 59.432 79.5343 59.272C79.8063 59.096 79.9423 58.936 79.9423 58.792C79.9423 58.728 79.9183 58.696 79.8703 58.696ZM96.3641 47.128C96.6201 47.128 96.8521 47.192 97.0601 47.32C97.2841 47.432 97.3961 47.64 97.3961 47.944C97.3961 48.264 97.2281 48.656 96.8921 49.12C96.5561 49.568 96.1081 50.064 95.5481 50.608C94.9881 51.152 94.3401 51.728 93.6041 52.336C92.8841 52.928 92.1321 53.52 91.3481 54.112C90.5641 54.704 89.7721 55.28 88.9721 55.84C88.1881 56.384 87.4521 56.888 86.7641 57.352C86.0761 57.8 85.4681 58.192 84.9401 58.528C84.4121 58.848 84.0201 59.08 83.7641 59.224C83.1561 60.088 82.6681 60.856 82.3001 61.528C81.9161 62.184 81.7241 62.672 81.7241 62.992C81.7241 63.168 81.7881 63.312 81.9161 63.424C82.0281 63.52 82.2441 63.568 82.5641 63.568C82.8841 63.568 83.2361 63.504 83.6201 63.376C84.0201 63.248 84.4281 63.08 84.8441 62.872C85.5641 62.504 86.2841 62.072 87.0041 61.576C87.7241 61.064 88.3641 60.568 88.9241 60.088C88.9881 60.024 89.0761 59.936 89.1881 59.824C89.3161 59.712 89.4361 59.6 89.5481 59.488C89.6601 59.376 89.7641 59.28 89.8601 59.2C89.9561 59.104 90.0201 59.056 90.0521 59.056C90.1161 59.056 90.1481 59.104 90.1481 59.2C89.9401 59.44 89.6521 59.72 89.2841 60.04C88.9321 60.344 88.5401 60.664 88.1081 61C87.6761 61.336 87.2121 61.672 86.7161 62.008C86.2201 62.328 85.7241 62.624 85.2281 62.896C84.7481 63.152 84.2761 63.36 83.8121 63.52C83.3481 63.68 82.9241 63.76 82.5401 63.76C82.1401 63.76 81.8761 63.68 81.7481 63.52C81.6041 63.344 81.5321 63.136 81.5321 62.896C81.5321 62.48 81.6921 61.936 82.0121 61.264C82.3161 60.576 82.7321 59.824 83.2601 59.008C83.8041 58.192 84.4281 57.336 85.1321 56.44C85.8521 55.528 86.6121 54.632 87.4121 53.752C88.2121 52.872 89.0281 52.032 89.8601 51.232C90.7081 50.432 91.5241 49.728 92.3081 49.12C93.1081 48.512 93.8521 48.032 94.5401 47.68C95.2441 47.312 95.8521 47.128 96.3641 47.128ZM92.1161 53.296C92.7881 52.768 93.4281 52.248 94.0361 51.736C94.6601 51.208 95.2041 50.712 95.6681 50.248C96.1481 49.784 96.5241 49.352 96.7961 48.952C97.0681 48.552 97.2041 48.216 97.2041 47.944C97.2041 47.72 97.1161 47.56 96.9401 47.464C96.7801 47.368 96.5961 47.32 96.3881 47.32C95.9881 47.32 95.4841 47.496 94.8761 47.848C94.2681 48.184 93.6041 48.648 92.8841 49.24C92.1641 49.832 91.4041 50.52 90.6041 51.304C89.8201 52.072 89.0361 52.88 88.2521 53.728C87.4841 54.576 86.7321 55.44 85.9961 56.32C85.2761 57.2 84.6281 58.04 84.0521 58.84C84.4041 58.632 84.8761 58.336 85.4681 57.952C86.0761 57.568 86.7401 57.128 87.4601 56.632C88.1961 56.136 88.9641 55.608 89.7641 55.048C90.5641 54.472 91.3481 53.888 92.1161 53.296ZM94.6042 59.056C94.7002 59.056 94.7482 59.104 94.7482 59.2C94.4762 59.504 94.1642 59.808 93.8122 60.112C93.4762 60.416 93.1082 60.688 92.7082 60.928C92.3242 61.168 91.9162 61.368 91.4842 61.528C91.0682 61.672 90.6442 61.744 90.2122 61.744C89.8282 61.744 89.5482 61.64 89.3722 61.432C89.1802 61.208 89.0682 60.936 89.0362 60.616C89.0362 60.376 89.0762 60.136 89.1562 59.896C89.2202 59.64 89.3242 59.408 89.4682 59.2C89.5962 58.992 89.7562 58.824 89.9482 58.696C90.1402 58.552 90.3642 58.48 90.6202 58.48C90.9722 58.48 91.1642 58.592 91.1962 58.816C91.1962 58.928 91.1482 59.04 91.0522 59.152C90.9562 59.248 90.8362 59.344 90.6922 59.44C90.5642 59.536 90.4202 59.624 90.2602 59.704C90.1002 59.768 89.9482 59.816 89.8042 59.848C89.6762 60.152 89.6122 60.448 89.6122 60.736C89.6282 60.96 89.7002 61.144 89.8282 61.288C89.9562 61.432 90.1562 61.504 90.4282 61.504C90.8122 61.504 91.1962 61.432 91.5802 61.288C91.9642 61.128 92.3402 60.936 92.7082 60.712C93.0762 60.472 93.4202 60.208 93.7402 59.92C94.0762 59.632 94.3642 59.344 94.6042 59.056ZM90.9562 58.696C90.7482 58.696 90.5482 58.792 90.3562 58.984C90.1802 59.16 90.0282 59.376 89.9002 59.632C90.1242 59.552 90.3642 59.432 90.6202 59.272C90.8922 59.096 91.0282 58.936 91.0282 58.792C91.0282 58.728 91.0042 58.696 90.9562 58.696ZM100.658 59.056C100.738 59.056 100.778 59.104 100.778 59.2C100.458 59.536 100.074 59.904 99.626 60.304C99.194 60.704 98.722 61.08 98.21 61.432C97.698 61.768 97.17 62.048 96.626 62.272C96.098 62.496 95.594 62.608 95.114 62.608C94.506 62.608 94.058 62.456 93.77 62.152C93.482 61.832 93.338 61.456 93.338 61.024C93.338 60.736 93.402 60.448 93.53 60.16C93.642 59.856 93.802 59.592 94.01 59.368C94.218 59.128 94.45 58.936 94.706 58.792C94.978 58.632 95.258 58.552 95.546 58.552C95.738 58.552 95.898 58.616 96.026 58.744C96.17 58.856 96.242 59.008 96.242 59.2C96.242 59.344 96.21 59.448 96.146 59.512C96.098 59.576 96.05 59.608 96.002 59.608C95.954 59.608 95.93 59.584 95.93 59.536C96.01 59.424 96.05 59.312 96.05 59.2C96.05 59.104 96.026 59.016 95.978 58.936C95.93 58.856 95.85 58.816 95.738 58.816C95.53 58.816 95.314 58.904 95.09 59.08C94.882 59.24 94.69 59.44 94.514 59.68C94.338 59.92 94.194 60.184 94.082 60.472C93.954 60.744 93.89 60.992 93.89 61.216C93.89 61.536 93.986 61.816 94.178 62.056C94.37 62.296 94.69 62.416 95.138 62.416C95.602 62.416 96.09 62.304 96.602 62.08C97.13 61.84 97.642 61.552 98.138 61.216C98.634 60.88 99.098 60.52 99.53 60.136C99.978 59.736 100.354 59.376 100.658 59.056ZM116.523 52.84C116.571 52.712 116.643 52.648 116.739 52.648C116.947 52.648 117.051 52.768 117.051 53.008C117.051 53.136 116.995 53.264 116.883 53.392C116.483 53.824 115.979 54.12 115.371 54.28C114.763 54.424 114.091 54.496 113.355 54.496C112.443 54.496 111.563 54.408 110.715 54.232C109.867 54.04 109.011 53.824 108.147 53.584C106.947 54.576 105.723 55.52 104.475 56.416C103.227 57.312 102.115 58.08 101.139 58.72C100.819 59.12 100.523 59.512 100.251 59.896C99.9946 60.264 99.7546 60.624 99.5306 60.976C99.1626 61.568 98.8746 62.112 98.6666 62.608C98.4426 63.104 98.3306 63.536 98.3306 63.904C98.3306 64.048 98.3626 64.192 98.4266 64.336C98.4746 64.496 98.5306 64.64 98.5946 64.768C98.6426 64.912 98.6986 65.024 98.7626 65.104C98.8106 65.2 98.8346 65.248 98.8346 65.248C98.8346 65.328 98.7946 65.368 98.7146 65.368C98.6826 65.368 98.6666 65.352 98.6666 65.32C98.2986 64.92 98.1146 64.432 98.1146 63.856C98.1146 63.52 98.1786 63.152 98.3066 62.752C98.4186 62.352 98.5866 61.92 98.8106 61.456C99.1146 60.832 99.4986 60.168 99.9626 59.464C100.427 58.744 100.947 58.016 101.523 57.28C102.115 56.544 102.747 55.808 103.419 55.072C104.091 54.32 104.779 53.592 105.483 52.888C104.939 52.76 104.395 52.664 103.851 52.6C103.307 52.52 102.755 52.48 102.195 52.48C101.427 52.48 100.747 52.584 100.155 52.792C99.5626 53 99.1866 53.384 99.0266 53.944C98.9786 54.088 98.8986 54.16 98.7866 54.16C98.7066 54.16 98.6426 54.128 98.5946 54.064C98.5306 54 98.4986 53.912 98.4986 53.8C98.4986 53.656 98.5546 53.52 98.6666 53.392C99.0186 53.024 99.4666 52.752 100.011 52.576C100.555 52.384 101.155 52.288 101.811 52.288C102.483 52.288 103.131 52.328 103.755 52.408C104.395 52.488 105.019 52.6 105.627 52.744C106.475 51.912 107.291 51.152 108.075 50.464C108.875 49.776 109.611 49.184 110.283 48.688C110.971 48.192 111.579 47.808 112.107 47.536C112.635 47.264 113.059 47.128 113.379 47.128C113.507 47.128 113.619 47.16 113.715 47.224C113.811 47.272 113.859 47.376 113.859 47.536C113.859 47.808 113.699 48.168 113.379 48.616C113.059 49.048 112.643 49.528 112.131 50.056C111.619 50.584 111.027 51.144 110.355 51.736C109.683 52.312 109.003 52.888 108.315 53.464C109.163 53.688 110.003 53.888 110.835 54.064C111.683 54.24 112.555 54.328 113.451 54.328C114.203 54.328 114.859 54.224 115.419 54.016C115.995 53.792 116.363 53.4 116.523 52.84ZM112.923 47.464C112.603 47.608 112.203 47.848 111.723 48.184C111.259 48.52 110.739 48.928 110.163 49.408C109.587 49.888 108.971 50.424 108.315 51.016C107.675 51.608 107.019 52.24 106.347 52.912C106.651 52.992 106.947 53.072 107.235 53.152C107.523 53.232 107.811 53.312 108.099 53.392C108.771 52.848 109.435 52.288 110.091 51.712C110.763 51.12 111.363 50.56 111.891 50.032C112.419 49.504 112.843 49.024 113.163 48.592C113.499 48.16 113.667 47.816 113.667 47.56C113.667 47.384 113.587 47.296 113.427 47.296C113.347 47.296 113.259 47.32 113.163 47.368C113.067 47.4 112.987 47.432 112.923 47.464ZM101.499 58.264C102.427 57.64 103.451 56.92 104.571 56.104C105.707 55.272 106.827 54.416 107.931 53.536C107.643 53.456 107.355 53.384 107.067 53.32C106.779 53.24 106.491 53.16 106.203 53.08C105.371 53.912 104.547 54.768 103.731 55.648C102.931 56.528 102.187 57.4 101.499 58.264ZM109.229 59.056C109.325 59.056 109.373 59.104 109.373 59.2C109.101 59.504 108.789 59.808 108.437 60.112C108.101 60.416 107.733 60.688 107.333 60.928C106.949 61.168 106.541 61.368 106.109 61.528C105.693 61.672 105.269 61.744 104.837 61.744C104.453 61.744 104.173 61.64 103.997 61.432C103.805 61.208 103.693 60.936 103.661 60.616C103.661 60.376 103.701 60.136 103.781 59.896C103.845 59.64 103.949 59.408 104.093 59.2C104.221 58.992 104.381 58.824 104.573 58.696C104.765 58.552 104.989 58.48 105.245 58.48C105.597 58.48 105.789 58.592 105.821 58.816C105.821 58.928 105.773 59.04 105.677 59.152C105.581 59.248 105.461 59.344 105.317 59.44C105.189 59.536 105.045 59.624 104.885 59.704C104.725 59.768 104.573 59.816 104.429 59.848C104.301 60.152 104.237 60.448 104.237 60.736C104.253 60.96 104.325 61.144 104.453 61.288C104.581 61.432 104.781 61.504 105.053 61.504C105.437 61.504 105.821 61.432 106.205 61.288C106.589 61.128 106.965 60.936 107.333 60.712C107.701 60.472 108.045 60.208 108.365 59.92C108.701 59.632 108.989 59.344 109.229 59.056ZM105.581 58.696C105.373 58.696 105.173 58.792 104.981 58.984C104.805 59.16 104.653 59.376 104.525 59.632C104.749 59.552 104.989 59.432 105.245 59.272C105.517 59.096 105.653 58.936 105.653 58.792C105.653 58.728 105.629 58.696 105.581 58.696ZM122.891 48.616C123.211 48.648 123.371 48.832 123.371 49.168C123.371 49.456 123.187 49.856 122.819 50.368C122.451 50.864 121.963 51.432 121.355 52.072C120.747 52.696 120.035 53.36 119.219 54.064C118.419 54.768 117.579 55.472 116.699 56.176C115.835 56.88 114.955 57.552 114.059 58.192C113.163 58.832 112.323 59.4 111.539 59.896C110.963 60.664 110.507 61.344 110.171 61.936C109.835 62.528 109.667 62.984 109.667 63.304C109.667 63.624 109.859 63.784 110.243 63.784C110.707 63.784 111.275 63.616 111.947 63.28C112.635 62.928 113.339 62.512 114.059 62.032C114.523 61.712 114.971 61.384 115.403 61.048C115.851 60.696 116.251 60.36 116.603 60.04C116.827 59.832 117.043 59.616 117.251 59.392C117.459 59.168 117.579 59.056 117.611 59.056C117.691 59.056 117.731 59.096 117.731 59.176C117.523 59.416 117.243 59.704 116.891 60.04C116.539 60.36 116.139 60.704 115.691 61.072C115.243 61.424 114.771 61.776 114.275 62.128C113.779 62.464 113.283 62.776 112.787 63.064C112.307 63.336 111.843 63.56 111.395 63.736C110.947 63.896 110.563 63.976 110.243 63.976C109.923 63.976 109.691 63.904 109.547 63.76C109.403 63.616 109.331 63.424 109.331 63.184C109.331 62.896 109.427 62.52 109.619 62.056C109.827 61.592 110.107 61.088 110.459 60.544C109.899 60.816 109.443 61.04 109.091 61.216C108.739 61.376 108.427 61.456 108.155 61.456C108.027 61.456 107.915 61.424 107.819 61.36C107.723 61.296 107.675 61.168 107.675 60.976C107.675 60.736 107.739 60.488 107.867 60.232C107.979 59.976 108.131 59.744 108.323 59.536C108.515 59.312 108.731 59.136 108.971 59.008C109.227 58.864 109.475 58.792 109.715 58.792C110.035 58.792 110.307 58.888 110.531 59.08C110.755 59.272 110.883 59.528 110.915 59.848C111.427 59.08 112.027 58.272 112.715 57.424C113.419 56.56 114.155 55.712 114.923 54.88C115.707 54.048 116.491 53.256 117.275 52.504C118.075 51.736 118.827 51.072 119.531 50.512C120.251 49.936 120.899 49.48 121.475 49.144C122.067 48.792 122.539 48.616 122.891 48.616ZM109.715 60.736C109.795 60.688 109.891 60.64 110.003 60.592C110.115 60.544 110.227 60.488 110.339 60.424C110.451 60.36 110.539 60.288 110.603 60.208C110.683 60.128 110.723 60.032 110.723 59.92C110.723 59.744 110.675 59.568 110.579 59.392C110.483 59.216 110.331 59.128 110.123 59.128C109.947 59.128 109.731 59.208 109.475 59.368C109.235 59.528 109.003 59.72 108.779 59.944C108.555 60.152 108.363 60.368 108.203 60.592C108.043 60.816 107.963 61 107.963 61.144C107.963 61.24 108.035 61.288 108.179 61.288C108.355 61.288 108.571 61.24 108.827 61.144C109.067 61.048 109.363 60.912 109.715 60.736ZM118.427 54.52C119.099 53.944 119.723 53.384 120.299 52.84C120.875 52.296 121.379 51.792 121.811 51.328C122.243 50.864 122.579 50.448 122.819 50.08C123.059 49.696 123.179 49.384 123.179 49.144C123.179 48.92 123.083 48.808 122.891 48.808C122.651 48.808 122.291 48.968 121.811 49.288C121.347 49.608 120.803 50.04 120.179 50.584C119.555 51.112 118.875 51.736 118.139 52.456C117.419 53.16 116.683 53.912 115.931 54.712C115.195 55.496 114.475 56.296 113.771 57.112C113.067 57.928 112.427 58.712 111.851 59.464C112.859 58.808 113.939 58.048 115.091 57.184C116.259 56.32 117.371 55.432 118.427 54.52ZM141.334 57.376C141.414 57.376 141.454 57.408 141.454 57.472C141.454 57.536 141.414 57.568 141.334 57.568C140.774 57.568 140.166 57.6 139.51 57.664C138.87 57.728 138.198 57.816 137.494 57.928C136.342 59.352 135.15 60.776 133.918 62.2C132.702 63.624 131.542 65 130.438 66.328C130.358 67.288 130.126 68.264 129.742 69.256C129.358 70.264 128.926 71.168 128.446 71.968C127.966 72.784 127.494 73.448 127.03 73.96C126.566 74.488 126.222 74.752 125.998 74.752C125.854 74.752 125.766 74.664 125.734 74.488C125.686 74.328 125.654 74.168 125.638 74.008C125.638 73.512 125.758 72.952 125.998 72.328C126.222 71.704 126.542 71.032 126.958 70.312C127.374 69.608 127.862 68.864 128.422 68.08C128.998 67.296 129.622 66.48 130.294 65.632C130.278 65.088 130.182 64.568 130.006 64.072C129.846 63.592 129.566 63.176 129.166 62.824C128.782 62.472 128.278 62.192 127.654 61.984C127.03 61.776 126.254 61.672 125.326 61.672C124.542 61.672 123.654 61.752 122.662 61.912C121.654 62.072 120.526 62.336 119.278 62.704C119.214 62.704 119.174 62.68 119.158 62.632C119.158 62.616 119.166 62.592 119.182 62.56C119.182 62.528 119.198 62.512 119.23 62.512C120.334 62.176 121.598 61.792 123.022 61.36C124.43 60.928 125.902 60.504 127.438 60.088C128.974 59.656 130.526 59.248 132.094 58.864C133.678 58.48 135.19 58.16 136.63 57.904C137.43 56.896 138.19 55.912 138.91 54.952C139.646 53.992 140.286 53.072 140.83 52.192C141.39 51.312 141.83 50.48 142.15 49.696C142.486 48.912 142.654 48.208 142.654 47.584C142.654 47.232 142.59 46.944 142.462 46.72C142.35 46.48 142.19 46.288 141.982 46.144C141.774 46 141.526 45.896 141.238 45.832C140.966 45.768 140.678 45.736 140.374 45.736C139.67 45.736 138.814 45.896 137.806 46.216C136.798 46.536 135.718 46.952 134.566 47.464C133.414 47.976 132.23 48.568 131.014 49.24C129.814 49.896 128.654 50.568 127.534 51.256C126.414 51.928 125.382 52.592 124.438 53.248C123.478 53.904 122.694 54.48 122.086 54.976C122.006 55.024 121.95 55.048 121.918 55.048C121.87 55.048 121.846 55.024 121.846 54.976C121.846 54.944 121.854 54.92 121.87 54.904C122.478 54.408 123.262 53.832 124.222 53.176C125.166 52.52 126.198 51.848 127.318 51.16C128.454 50.456 129.638 49.768 130.87 49.096C132.102 48.424 133.302 47.824 134.47 47.296C135.638 46.768 136.734 46.344 137.758 46.024C138.782 45.704 139.654 45.544 140.374 45.544C141.142 45.544 141.758 45.728 142.222 46.096C142.686 46.464 142.918 47.08 142.918 47.944C142.918 48.584 142.774 49.288 142.486 50.056C142.214 50.808 141.838 51.6 141.358 52.432C140.878 53.264 140.318 54.128 139.678 55.024C139.038 55.92 138.35 56.832 137.614 57.76C138.302 57.648 138.95 57.56 139.558 57.496C140.182 57.432 140.774 57.392 141.334 57.376ZM129.31 69.88C129.534 69.336 129.726 68.784 129.886 68.224C130.046 67.68 130.166 67.136 130.246 66.592L130.006 66.88C129.638 67.312 129.214 67.824 128.734 68.416C128.27 69.024 127.822 69.656 127.39 70.312C126.958 70.968 126.598 71.624 126.31 72.28C126.006 72.952 125.854 73.568 125.854 74.128C125.854 74.208 125.862 74.296 125.878 74.392C125.894 74.488 125.942 74.536 126.022 74.536C126.166 74.536 126.366 74.408 126.622 74.152C126.894 73.896 127.182 73.552 127.486 73.12C127.806 72.688 128.126 72.192 128.446 71.632C128.766 71.072 129.054 70.488 129.31 69.88ZM130.462 65.392C131.406 64.208 132.398 63 133.438 61.768C134.478 60.536 135.502 59.304 136.51 58.072C135.358 58.28 134.15 58.536 132.886 58.84C131.638 59.128 130.39 59.44 129.142 59.776C127.894 60.112 126.67 60.456 125.47 60.808C124.27 61.16 123.142 61.496 122.086 61.816C122.694 61.704 123.262 61.624 123.79 61.576C124.302 61.512 124.79 61.48 125.254 61.48C126.198 61.48 126.99 61.584 127.63 61.792C128.286 61.984 128.814 62.256 129.214 62.608C129.63 62.96 129.934 63.376 130.126 63.856C130.318 64.336 130.43 64.848 130.462 65.392ZM146.331 59.056C146.427 59.056 146.475 59.104 146.475 59.2C146.203 59.504 145.891 59.808 145.539 60.112C145.203 60.416 144.835 60.688 144.435 60.928C144.051 61.168 143.643 61.368 143.211 61.528C142.795 61.672 142.371 61.744 141.939 61.744C141.555 61.744 141.275 61.64 141.099 61.432C140.907 61.208 140.795 60.936 140.763 60.616C140.763 60.376 140.803 60.136 140.883 59.896C140.947 59.64 141.051 59.408 141.195 59.2C141.323 58.992 141.483 58.824 141.675 58.696C141.867 58.552 142.091 58.48 142.347 58.48C142.699 58.48 142.891 58.592 142.923 58.816C142.923 58.928 142.875 59.04 142.779 59.152C142.683 59.248 142.563 59.344 142.419 59.44C142.291 59.536 142.147 59.624 141.987 59.704C141.827 59.768 141.675 59.816 141.531 59.848C141.403 60.152 141.339 60.448 141.339 60.736C141.355 60.96 141.427 61.144 141.555 61.288C141.683 61.432 141.883 61.504 142.155 61.504C142.539 61.504 142.923 61.432 143.307 61.288C143.691 61.128 144.067 60.936 144.435 60.712C144.803 60.472 145.147 60.208 145.467 59.92C145.803 59.632 146.091 59.344 146.331 59.056ZM142.683 58.696C142.475 58.696 142.275 58.792 142.083 58.984C141.907 59.16 141.755 59.376 141.627 59.632C141.851 59.552 142.091 59.432 142.347 59.272C142.619 59.096 142.755 58.936 142.755 58.792C142.755 58.728 142.731 58.696 142.683 58.696ZM152.529 59.056C152.625 59.056 152.673 59.096 152.673 59.176C152.177 59.784 151.713 60.208 151.281 60.448C150.865 60.672 150.497 60.784 150.177 60.784C149.905 60.784 149.689 60.712 149.529 60.568C149.369 60.424 149.257 60.24 149.193 60.016C148.825 60.72 148.417 61.28 147.969 61.696C147.521 62.112 147.161 62.32 146.889 62.32C146.761 62.32 146.649 62.28 146.553 62.2C146.473 62.12 146.433 62.016 146.433 61.888C146.433 61.712 146.489 61.488 146.601 61.216C146.729 60.944 146.857 60.696 146.985 60.472C146.793 60.616 146.601 60.736 146.409 60.832C146.217 60.928 146.049 60.976 145.905 60.976C145.585 60.976 145.425 60.816 145.425 60.496C145.425 60.336 145.457 60.168 145.521 59.992C145.569 59.816 145.641 59.656 145.737 59.512C145.833 59.352 145.937 59.224 146.049 59.128C146.161 59.016 146.273 58.96 146.385 58.96C146.561 58.96 146.649 59.016 146.649 59.128C146.649 59.16 146.601 59.24 146.505 59.368C146.409 59.48 146.305 59.616 146.193 59.776C146.097 59.92 146.001 60.072 145.905 60.232C145.809 60.392 145.761 60.536 145.761 60.664C145.761 60.76 145.801 60.808 145.881 60.808C145.993 60.808 146.129 60.76 146.289 60.664C146.465 60.552 146.633 60.44 146.793 60.328C146.953 60.2 147.105 60.088 147.249 59.992C147.393 59.88 147.513 59.824 147.609 59.824C147.689 59.824 147.753 59.84 147.801 59.872C147.865 59.904 147.897 59.96 147.897 60.04C147.897 60.12 147.849 60.232 147.753 60.376C147.705 60.424 147.633 60.52 147.537 60.664C147.441 60.792 147.337 60.944 147.225 61.12C147.113 61.28 147.017 61.44 146.937 61.6C146.857 61.76 146.817 61.888 146.817 61.984C146.817 62.08 146.857 62.128 146.937 62.128C147.049 62.128 147.201 62.064 147.393 61.936C147.585 61.808 147.785 61.632 147.993 61.408C148.201 61.184 148.401 60.928 148.593 60.64C148.801 60.352 148.977 60.04 149.121 59.704C149.121 59.672 149.113 59.64 149.097 59.608C149.097 59.56 149.097 59.52 149.097 59.488C149.097 59.36 149.105 59.224 149.121 59.08C149.153 58.92 149.193 58.776 149.241 58.648C149.289 58.52 149.345 58.416 149.409 58.336C149.473 58.24 149.537 58.192 149.601 58.192C149.697 58.192 149.745 58.248 149.745 58.36C149.745 58.488 149.697 58.696 149.601 58.984C149.505 59.272 149.409 59.528 149.313 59.752C149.345 59.992 149.425 60.2 149.553 60.376C149.697 60.536 149.913 60.616 150.201 60.616C150.489 60.616 150.833 60.504 151.233 60.28C151.633 60.04 152.065 59.632 152.529 59.056ZM149.529 58.528C149.481 58.624 149.433 58.736 149.385 58.864C149.353 58.976 149.329 59.096 149.313 59.224C149.345 59.128 149.385 59 149.433 58.84C149.497 58.68 149.529 58.576 149.529 58.528Z" fill="#5F5C5C"/>
<defs>
<clipPath id="clip0_20_354">
<rect width="156" height="40" fill="white" transform="translate(2)"/>
</clipPath>
</defs>
</svg>
