<svg width="43" height="43" viewBox="0 0 43 43" fill="none" xmlns="http://www.w3.org/2000/svg">
<path d="M5.875 13.375C5.875 11.4752 5.87606 10.1007 6.01699 9.05254C6.15598 8.01873 6.42272 7.37753 6.90013 6.90013C7.37753 6.42272 8.01873 6.15598 9.05254 6.01699C10.1007 5.87606 11.4752 5.875 13.375 5.875H29.625C31.5248 5.875 32.8993 5.87606 33.9475 6.01699C34.9813 6.15598 35.6225 6.42272 36.0999 6.90013C36.5773 7.37753 36.844 8.01873 36.983 9.05254C37.1239 10.1007 37.125 11.4752 37.125 13.375V29.625C37.125 31.5248 37.1239 32.8993 36.983 33.9475C36.844 34.9813 36.5773 35.6225 36.0999 36.0999C35.6225 36.5773 34.9813 36.844 33.9475 36.983C32.8993 37.1239 31.5248 37.125 29.625 37.125H13.375C11.4752 37.125 10.1007 37.1239 9.05254 36.983C8.01873 36.844 7.37753 36.5773 6.90013 36.0999C6.42272 35.6225 6.15598 34.9813 6.01699 33.9475C5.87606 32.8993 5.875 31.5248 5.875 29.625V13.375Z" stroke="#5F5C5C"/>
<path d="M21.5 14.3333L21.5 28.6667" stroke="#5F5C5C" stroke-linejoin="round"/>
<path d="M28.6667 21.5L14.3334 21.5" stroke="#5F5C5C" stroke-linejoin="round"/>
</svg>
